<svg width="435" height="253" viewBox="0 0 435 253" fill="none" xmlns="http://www.w3.org/2000/svg">
<g style="mix-blend-mode:screen" opacity="0.1">
<path fill-rule="evenodd" clip-rule="evenodd" d="M301.437 14.0591C301.437 50.5579 288.392 85.5615 265.172 111.37C241.952 137.179 210.459 151.678 177.621 151.678C144.783 151.678 113.289 137.179 90.0695 111.37C66.8495 85.5615 53.8046 50.5579 53.8046 14.0591C53.8046 14.0591 124.557 44.1634 177.621 14.0591C230.685 -16.0453 301.437 14.0591 301.437 14.0591ZM342.858 107.631C336.213 122.252 328.185 135.528 319.125 146.728C313.458 152.224 308.698 157.379 304.284 162.16C281.144 187.22 267.486 202.011 182.239 202.011C93.2949 202.011 81.9833 189.871 54.4414 160.313L54.4411 160.313C50.5502 156.137 46.3353 151.614 41.5319 146.728C2.72711 107.257 0.740479 67.5161 0.740479 17.457H36.1165C36.1165 88.7618 66.5293 123.017 66.5293 123.017C66.5293 123.017 93.799 168.478 182.239 168.478C270.679 168.478 292.593 123.017 292.593 123.017C292.593 123.017 322.947 71.9842 322.947 13.2626H360.027C364.605 11.8374 369.383 10.9585 374.251 10.6672C386.521 9.93312 398.713 12.9717 409.018 19.3319C419.324 25.6922 427.192 35.0351 431.455 45.9734C435.717 56.9118 436.148 68.8625 432.682 80.0513C429.216 91.2399 422.038 101.071 412.215 108.083C402.391 115.095 390.446 118.916 378.152 118.978C365.858 119.04 353.87 115.339 343.969 108.426C343.595 108.165 343.225 107.9 342.858 107.631ZM361.221 43.7423C365.532 40.6754 370.703 38.8601 376.104 38.5368C382.054 38.1809 387.965 39.6542 392.962 42.7381C397.959 45.822 401.774 50.3521 403.841 55.6558C405.908 60.9594 406.116 66.7539 404.436 72.1791C402.755 77.6042 399.275 82.3707 394.512 85.7704C389.749 89.1713 383.957 91.0235 377.996 91.0537C372.034 91.0839 366.222 89.2895 361.422 85.9374C358.333 83.7811 355.769 81.0542 353.87 77.9437C357.124 66.8795 359.613 55.3992 361.221 43.7423ZM20.5924 227.177H343.493C349.573 227.177 354.501 232.811 354.501 239.76C354.501 246.71 349.573 252.344 343.493 252.344H20.5924C14.5129 252.344 9.58444 246.71 9.58444 239.76C9.58444 232.811 14.5129 227.177 20.5924 227.177Z" fill="#F9D9AA"/>
</g>
</svg>
